<?xml version="1.0" ?><!DOCTYPE svg  PUBLIC '-//W3C//DTD SVG 1.1//EN'  'http://www.w3.org/Graphics/SVG/1.1/DTD/svg11.dtd'><svg fill="white" enable-background="new 0 0 30 30" height="30px" id="Soundcloud" version="1.1" viewBox="0 0 30 30" width="30px" xml:space="preserve" xmlns="http://www.w3.org/2000/svg" xmlns:xlink="http://www.w3.org/1999/xlink"><path d="M26,15h-1c2-4-2-8-7-8c-0.557,0-1,0-1,0c-0.553,0-1,0.448-1,1v14c0,0.553,0.447,1,1,1h4h2h3c2.209,0,4-1.791,4-4  S28.209,15,26,15z" id="Cloud"/><g id="Sound"><path d="M1,14.917c-0.552,0-1,0.448-1,1V22c0,0.553,0.448,1,1,1s1-0.447,1-1v-6.083C2,15.364,1.552,14.917,1,14.917z"/><path d="M9,8C8.448,8,8,8.448,8,9v13c0,0.553,0.448,1,1,1s1-0.447,1-1V9C10,8.448,9.552,8,9,8z"/><path d="M13,11c-0.552,0-1,0.448-1,1v10c0,0.553,0.448,1,1,1s1-0.447,1-1V12C14,11.448,13.552,11,13,11z"/><path d="M5,12c-0.552,0-1,0.448-1,1v9c0,0.553,0.448,1,1,1s1-0.447,1-1v-9C6,12.448,5.552,12,5,12z"/></g></svg>