<?xml version="1.0" standalone="no"?>
<!DOCTYPE svg PUBLIC "-//W3C//DTD SVG 20010904//EN"
 "http://www.w3.org/TR/2001/REC-SVG-20010904/DTD/svg10.dtd">
<svg version="1.0" xmlns="http://www.w3.org/2000/svg"
 width="4681.000000pt" height="4681.000000pt" viewBox="0 0 4681.000000 4681.000000"
 preserveAspectRatio="xMidYMid meet">
<metadata>
Created by potrace 1.11, written by Peter Selinger 2001-2013
</metadata>
<g transform="translate(0.000000,4681.000000) scale(0.100000,-0.100000)"
fill="#000000" stroke="none">
<path d="M7 40423 c4 -10 24 -53 45 -96 21 -44 61 -129 89 -190 28 -61 66
-143 84 -182 73 -156 250 -535 282 -605 19 -41 50 -106 68 -145 18 -38 48
-104 68 -145 133 -288 237 -511 283 -608 30 -63 54 -115 54 -117 0 -2 29 -64
65 -139 36 -75 65 -138 65 -141 0 -2 27 -60 59 -127 32 -68 73 -154 91 -193
75 -162 116 -250 405 -870 167 -357 322 -690 345 -740 47 -99 75 -160 175
-375 37 -80 83 -179 102 -220 20 -41 48 -102 63 -135 15 -33 51 -109 80 -170
28 -60 61 -130 72 -155 11 -25 35 -76 53 -115 58 -123 107 -228 135 -290 15
-33 47 -100 70 -150 23 -49 70 -151 105 -225 34 -74 86 -184 114 -244 28 -59
51 -110 51 -111 0 -2 32 -69 70 -149 39 -81 70 -148 70 -150 0 -4 48 -107 156
-335 30 -62 54 -115 54 -117 0 -1 25 -56 56 -121 31 -65 64 -136 74 -158 10
-22 54 -116 97 -210 109 -231 279 -595 315 -675 12 -25 47 -101 79 -169 33
-68 59 -125 59 -126 0 -3 60 -132 142 -305 28 -58 72 -152 98 -210 26 -58 75
-163 109 -234 34 -70 61 -130 61 -132 0 -1 31 -69 70 -150 38 -80 70 -148 70
-150 0 -2 31 -69 70 -150 38 -80 70 -147 70 -149 0 -2 22 -50 48 -107 27 -57
62 -130 77 -163 15 -33 56 -120 91 -194 35 -73 64 -135 64 -137 0 -1 20 -46
45 -98 25 -53 65 -139 90 -192 25 -52 45 -97 45 -99 0 -1 32 -69 70 -149 39
-81 70 -148 70 -150 0 -2 31 -70 70 -150 38 -81 70 -149 70 -151 0 -2 31 -69
70 -149 38 -81 70 -148 70 -150 0 -2 34 -74 75 -161 41 -86 75 -158 75 -160 0
-4 36 -82 131 -284 33 -68 59 -125 59 -126 0 -2 32 -69 70 -150 39 -81 70
-148 70 -150 0 -2 25 -56 56 -121 64 -136 113 -240 156 -334 53 -116 99 -214
124 -265 13 -28 24 -56 24 -63 0 -6 5 -12 10 -12 6 0 10 -4 10 -10 0 -5 16
-45 36 -87 20 -43 49 -105 64 -138 15 -33 44 -96 65 -140 20 -44 51 -109 67
-145 17 -36 55 -116 84 -179 30 -62 54 -114 54 -116 0 -2 24 -54 53 -116 30
-63 82 -175 117 -249 34 -74 85 -182 113 -240 27 -58 60 -127 72 -155 25 -55
278 -601 327 -705 17 -36 45 -96 63 -135 18 -38 52 -110 75 -160 23 -49 69
-146 100 -215 32 -69 83 -178 114 -244 31 -65 56 -119 56 -121 0 -1 24 -54 53
-116 30 -63 67 -141 82 -174 15 -33 48 -103 73 -155 40 -86 254 -545 339 -730
20 -41 52 -111 73 -155 46 -97 93 -199 170 -365 32 -69 81 -174 109 -234 28
-59 51 -109 51 -111 0 -1 34 -73 75 -159 41 -86 75 -159 75 -161 0 -2 24 -55
54 -117 67 -141 112 -238 141 -303 13 -27 45 -97 72 -155 28 -58 62 -132 78
-165 15 -33 44 -96 65 -140 21 -44 81 -174 135 -290 54 -115 118 -253 143
-305 24 -52 68 -147 97 -210 29 -63 74 -160 100 -215 81 -172 111 -237 163
-350 27 -61 82 -177 121 -259 39 -81 71 -150 71 -151 0 -2 29 -65 65 -140 36
-76 65 -139 65 -140 0 -2 29 -65 65 -140 36 -75 65 -138 65 -139 0 -2 31 -70
70 -150 38 -81 70 -149 70 -151 0 -2 32 -69 70 -150 39 -81 70 -148 70 -150 0
-3 62 -136 151 -323 27 -57 49 -105 49 -107 0 -1 26 -59 59 -126 58 -124 89
-190 141 -304 15 -33 43 -94 63 -135 81 -173 161 -343 208 -448 11 -24 43 -91
71 -150 28 -59 76 -163 108 -232 31 -69 75 -163 97 -210 48 -102 304 -650 343
-735 44 -97 168 -362 221 -473 27 -57 49 -105 49 -107 0 -1 26 -59 59 -126 32
-68 69 -146 81 -174 13 -27 49 -106 81 -174 33 -68 59 -125 59 -127 0 -1 32
-69 70 -150 39 -80 70 -148 70 -149 0 -2 25 -57 56 -122 31 -65 96 -203 144
-308 49 -104 109 -235 135 -290 26 -55 61 -129 77 -165 47 -101 86 -186 139
-298 27 -57 49 -105 49 -107 0 -1 28 -61 61 -131 34 -71 71 -151 84 -179 12
-27 41 -88 63 -135 68 -143 123 -262 152 -325 52 -114 101 -219 272 -585 22
-47 66 -141 98 -210 32 -69 76 -163 98 -210 22 -47 51 -110 65 -140 14 -30 43
-93 65 -140 83 -179 217 -465 352 -755 23 -49 55 -117 70 -150 15 -33 45 -96
65 -140 21 -44 57 -120 80 -170 23 -49 52 -112 65 -140 64 -140 83 -179 134
-288 31 -65 56 -120 56 -122 0 -2 29 -64 64 -137 35 -73 75 -158 89 -188 13
-30 43 -93 64 -140 22 -47 51 -107 63 -135 12 -27 49 -106 81 -174 33 -67 59
-124 59 -126 0 -2 23 -52 51 -112 28 -59 64 -135 79 -168 16 -33 51 -108 79
-167 l50 -108 3765 0 c2071 0 3766 2 3766 4 0 7 -34 84 -85 191 -26 55 -60
128 -76 161 -15 34 -46 101 -69 149 -23 48 -54 115 -70 149 -42 90 -162 350
-203 436 -19 41 -46 100 -60 130 -14 30 -43 94 -66 143 -130 278 -120 256
-210 450 -16 34 -83 178 -150 320 -67 143 -121 261 -121 263 0 2 -34 74 -75
160 -41 86 -75 158 -75 160 0 2 -20 45 -44 96 -24 51 -92 197 -151 323 -114
245 -145 311 -208 445 -21 47 -65 142 -98 212 -32 69 -62 135 -68 145 -5 10
-23 47 -40 83 -40 89 -163 352 -222 478 -27 57 -49 105 -49 107 0 2 -25 56
-56 121 -31 66 -70 148 -86 184 -17 36 -52 112 -79 168 -27 57 -49 105 -49
107 0 2 -31 69 -70 150 -38 81 -70 148 -70 150 0 2 -27 59 -59 127 -32 68 -82
175 -111 238 -29 63 -79 170 -111 238 -32 68 -59 125 -59 127 0 1 -22 49 -49
106 -40 85 -184 394 -424 909 -16 36 -56 121 -88 189 -33 68 -59 125 -59 126
0 2 -31 69 -70 150 -38 81 -70 148 -70 150 0 2 -23 52 -51 112 -69 146 -354
757 -419 898 -15 33 -49 105 -75 160 -26 55 -58 125 -72 155 -13 30 -42 91
-63 135 -21 44 -52 109 -68 145 -16 36 -46 100 -66 143 -20 42 -52 112 -72
155 -42 90 -85 183 -124 267 -15 33 -50 107 -78 165 -27 58 -60 128 -72 155
-12 28 -41 88 -62 135 -22 47 -69 146 -103 220 -34 74 -88 188 -119 253 -31
65 -56 120 -56 121 0 2 -28 62 -61 132 -34 71 -71 152 -84 179 -38 85 -85 186
-127 275 -23 47 -53 112 -68 145 -15 33 -45 98 -67 145 -22 47 -55 117 -73
155 -18 39 -48 104 -67 145 -20 41 -48 102 -63 135 -16 33 -46 98 -68 145 -47
101 -103 221 -144 310 -17 36 -45 97 -63 135 -64 137 -178 382 -235 505 -32
69 -77 166 -100 215 -23 50 -73 155 -110 235 -168 362 -201 432 -254 544 -31
65 -56 119 -56 121 0 1 -24 54 -54 116 -52 110 -297 635 -358 769 -17 36 -45
97 -63 135 -18 39 -95 203 -170 365 -75 162 -155 333 -177 380 -22 47 -82 175
-133 285 -51 110 -111 238 -133 285 -22 47 -51 110 -65 140 -13 30 -62 134
-107 230 -111 236 -142 304 -210 450 -57 122 -96 207 -164 353 -18 39 -48 104
-66 142 -18 39 -55 117 -82 175 -28 58 -59 125 -70 150 -11 25 -45 96 -74 158
-30 62 -54 115 -54 117 0 2 -31 70 -70 151 -38 80 -70 148 -70 149 0 2 -24 54
-54 117 -29 62 -67 142 -84 178 -16 36 -167 360 -335 720 -168 360 -321 689
-340 730 -19 41 -54 116 -77 165 -23 50 -68 146 -100 215 -32 69 -76 163 -98
210 -21 47 -146 315 -277 595 -131 281 -252 542 -270 580 -18 39 -80 171 -138
295 -57 124 -120 259 -140 300 -19 41 -49 107 -67 145 -66 143 -103 222 -142
305 -47 100 -155 333 -188 405 -13 28 -49 106 -81 174 -33 68 -59 125 -59 126
0 2 -30 65 -66 142 -36 76 -88 185 -114 243 -27 58 -76 163 -109 233 -34 71
-61 130 -61 132 0 2 -24 55 -54 117 -50 106 -68 145 -147 316 -36 78 -80 172
-137 292 -50 108 -101 216 -142 305 -18 39 -50 108 -73 155 -22 47 -66 141
-97 210 -32 69 -77 166 -100 215 -23 50 -55 117 -70 150 -15 33 -43 94 -63
135 -19 41 -94 203 -167 360 -146 314 -192 413 -253 540 -22 47 -41 87 -42 90
0 3 -13 30 -27 60 -14 30 -55 118 -91 195 -36 77 -86 185 -112 240 -26 55 -69
147 -95 205 -27 58 -69 150 -95 205 -26 55 -76 161 -110 235 -35 74 -86 184
-114 243 -28 60 -51 110 -51 112 0 1 -31 69 -70 149 -38 81 -70 149 -70 151 0
2 -22 50 -49 107 -78 163 -141 298 -168 358 -14 30 -40 87 -58 125 -18 39 -47
102 -65 140 -18 39 -57 121 -86 184 -30 62 -54 115 -54 116 0 2 -26 59 -59
126 -32 68 -70 149 -84 179 -14 30 -42 91 -62 135 -21 44 -50 107 -65 140 -15
33 -49 105 -75 160 -26 55 -87 186 -136 292 -48 106 -93 200 -98 210 -6 10
-24 50 -42 88 -31 70 -71 155 -136 295 -20 41 -64 136 -98 210 -35 74 -86 184
-114 243 -28 60 -51 110 -51 111 0 2 -26 59 -59 127 -32 68 -101 216 -154 329
-120 260 -179 385 -224 483 l-37 77 -3767 0 c-3585 0 -3768 -1 -3762 -17z"/>
<path d="M39235 40358 c-21 -46 -57 -123 -80 -173 -24 -49 -54 -115 -68 -145
-27 -60 -81 -175 -147 -315 -23 -49 -56 -119 -72 -155 -54 -117 -108 -233
-198 -425 -16 -33 -44 -94 -63 -135 -19 -41 -82 -176 -139 -300 -58 -124 -117
-250 -131 -280 -14 -30 -46 -100 -72 -155 -26 -55 -90 -192 -142 -305 -118
-253 -148 -318 -208 -445 -26 -55 -58 -125 -72 -155 -28 -60 -285 -613 -338
-725 -18 -38 -46 -99 -63 -135 -54 -119 -90 -194 -137 -295 -26 -55 -89 -190
-140 -300 -79 -170 -268 -576 -405 -870 -20 -44 -52 -111 -70 -150 -18 -38
-57 -121 -86 -184 -30 -62 -54 -115 -54 -117 0 -2 -25 -56 -56 -121 -67 -142
-84 -178 -167 -358 -36 -77 -87 -187 -115 -245 -27 -58 -74 -159 -105 -225
-30 -66 -74 -160 -97 -210 -23 -49 -54 -115 -67 -145 -14 -30 -52 -111 -84
-179 -33 -68 -59 -125 -59 -126 0 -3 -50 -109 -154 -329 -31 -65 -56 -120 -56
-122 0 -2 -40 -89 -135 -289 -18 -38 -62 -133 -98 -210 -35 -77 -88 -189 -116
-249 -28 -59 -51 -109 -51 -111 0 -1 -26 -58 -59 -126 -32 -68 -70 -149 -84
-179 -27 -60 -78 -168 -131 -282 -18 -40 -48 -104 -66 -143 -18 -38 -50 -108
-72 -155 -22 -47 -54 -114 -71 -150 -61 -133 -241 -518 -277 -595 -21 -44 -81
-174 -135 -290 -54 -115 -115 -248 -137 -295 -22 -47 -53 -112 -68 -145 -15
-33 -62 -134 -105 -225 -42 -91 -89 -190 -102 -220 -25 -54 -126 -270 -205
-440 -22 -47 -66 -141 -98 -210 -72 -157 -123 -265 -165 -355 -42 -89 -89
-189 -180 -385 -40 -85 -86 -184 -103 -220 -34 -74 -49 -105 -232 -500 -73
-157 -157 -336 -186 -399 -30 -62 -54 -115 -54 -116 0 -2 -31 -69 -70 -150
-38 -81 -70 -148 -70 -150 0 -1 -26 -58 -59 -126 -32 -68 -67 -144 -79 -169
-11 -25 -39 -85 -62 -135 -23 -49 -54 -115 -67 -145 -14 -30 -80 -170 -146
-310 -66 -140 -127 -273 -137 -295 -17 -39 -47 -103 -130 -280 -47 -101 -70
-150 -212 -455 -17 -36 -46 -99 -66 -140 -20 -41 -36 -77 -37 -80 -2 -8 -38
-85 -95 -205 -28 -60 -61 -130 -72 -155 -11 -25 -45 -96 -74 -159 -30 -62 -54
-115 -54 -116 0 -2 -26 -59 -59 -127 -32 -68 -84 -179 -116 -248 -32 -69 -82
-176 -111 -238 -30 -62 -54 -115 -54 -117 0 -2 -31 -69 -70 -150 -38 -81 -70
-148 -70 -150 0 -1 -26 -58 -58 -126 -32 -68 -66 -140 -75 -159 -8 -19 -43
-93 -77 -165 -34 -71 -68 -143 -75 -160 -20 -43 -82 -178 -125 -270 -21 -44
-70 -150 -110 -235 -40 -85 -90 -193 -112 -240 -22 -47 -51 -110 -65 -140 -14
-30 -47 -101 -74 -158 -27 -57 -49 -105 -49 -107 0 -2 -31 -69 -70 -150 -38
-81 -70 -149 -70 -151 0 -2 -31 -69 -70 -150 -38 -80 -70 -150 -70 -155 0 -31
-24 8 -80 128 -35 76 -112 242 -170 368 -59 127 -122 262 -140 300 -18 39 -50
106 -70 150 -21 44 -54 114 -73 155 -81 176 -210 452 -279 598 -36 78 -127
273 -205 442 -19 41 -47 102 -63 135 -39 83 -107 228 -140 300 -15 33 -47 101
-70 150 -23 50 -51 110 -62 135 -11 25 -45 96 -74 158 -30 62 -54 114 -54 116
0 3 -49 108 -152 326 -22 47 -66 141 -98 210 -32 69 -77 166 -100 215 -23 50
-58 124 -77 165 -19 41 -78 167 -130 280 -53 113 -120 256 -149 318 -30 62
-54 115 -54 117 0 2 -24 55 -54 117 -78 166 -121 258 -154 329 -65 140 -166
359 -204 439 -22 47 -66 141 -98 210 -32 69 -78 169 -104 222 -25 53 -60 128
-77 165 -17 37 -46 100 -64 138 -18 39 -50 106 -70 150 -56 120 -173 372 -205
440 -15 33 -44 96 -65 140 -21 44 -50 107 -65 140 -15 33 -44 96 -65 140 -21
44 -50 107 -65 140 -15 33 -65 139 -110 235 -45 96 -94 200 -107 230 -23 49
-173 371 -270 580 -20 41 -58 122 -85 179 -27 57 -56 120 -64 140 l-14 36
-3768 0 c-2744 -1 -3766 -4 -3765 -12 1 -6 24 -57 51 -114 120 -254 142 -300
142 -304 0 -2 34 -74 75 -160 41 -87 75 -159 75 -161 0 -2 23 -52 51 -111 28
-60 77 -164 109 -233 32 -69 77 -165 100 -215 23 -49 56 -119 73 -155 16 -36
48 -103 70 -150 22 -47 52 -112 67 -145 15 -33 43 -94 63 -135 19 -41 64 -138
100 -215 35 -77 84 -180 107 -230 23 -49 54 -115 68 -145 13 -30 45 -98 69
-150 25 -52 71 -151 103 -220 32 -69 77 -165 100 -215 79 -168 276 -591 345
-740 60 -130 94 -204 135 -290 23 -49 100 -214 170 -365 70 -151 155 -333 189
-404 34 -70 61 -130 61 -131 0 -2 29 -65 65 -140 36 -75 65 -138 65 -140 0 -2
24 -54 54 -117 29 -62 65 -138 79 -168 13 -30 60 -129 102 -220 43 -91 103
-221 135 -290 66 -144 125 -269 182 -390 23 -47 51 -108 64 -137 13 -28 41
-89 62 -135 49 -102 105 -223 142 -303 15 -33 43 -94 63 -135 19 -41 48 -104
65 -140 16 -36 51 -110 77 -165 26 -55 86 -185 135 -290 48 -104 106 -228 128
-275 22 -47 72 -155 112 -240 40 -85 88 -189 107 -230 20 -41 48 -102 63 -135
16 -33 46 -98 68 -145 21 -47 54 -116 72 -155 18 -38 48 -104 67 -145 20 -41
94 -201 165 -355 72 -154 149 -320 173 -370 24 -49 57 -121 75 -160 60 -129
102 -220 120 -260 10 -22 48 -102 84 -179 36 -76 66 -139 66 -141 0 -1 24 -54
54 -116 29 -63 65 -139 79 -169 14 -30 45 -98 70 -150 24 -52 53 -115 65 -140
11 -25 48 -103 81 -173 34 -71 61 -130 61 -132 0 -2 29 -65 65 -140 36 -76 65
-138 65 -140 0 -1 29 -63 64 -136 35 -74 89 -190 121 -259 32 -69 75 -163 97
-210 22 -47 83 -177 135 -290 52 -113 128 -276 169 -362 41 -86 87 -185 103
-220 16 -35 45 -99 66 -143 21 -44 50 -107 65 -140 15 -33 49 -105 75 -160 47
-99 84 -179 132 -285 14 -30 46 -98 70 -150 25 -52 57 -120 70 -150 14 -30 50
-106 79 -169 30 -62 54 -115 54 -116 0 -2 31 -69 70 -150 38 -81 70 -148 70
-150 0 -1 24 -54 54 -116 29 -63 113 -242 186 -399 73 -157 151 -323 172 -370
22 -47 67 -143 100 -215 34 -71 83 -177 109 -234 27 -57 49 -104 49 -106 0 -1
29 -63 64 -136 35 -74 73 -155 84 -180 12 -25 46 -99 77 -164 30 -64 55 -118
55 -120 0 -2 29 -63 64 -137 35 -73 88 -187 119 -253 51 -112 72 -156 172
-370 21 -44 79 -170 130 -280 51 -110 112 -240 135 -290 23 -49 70 -151 105
-225 34 -74 86 -184 114 -243 28 -60 51 -110 51 -112 0 -1 30 -65 66 -141 36
-77 75 -159 86 -184 11 -25 35 -76 53 -115 18 -38 62 -133 98 -210 36 -77 84
-180 107 -230 55 -117 106 -225 140 -300 15 -33 47 -100 70 -150 23 -49 55
-119 72 -154 16 -35 44 -96 62 -135 19 -39 66 -138 104 -221 38 -82 93 -199
121 -259 28 -59 51 -110 51 -111 0 -2 24 -54 54 -116 29 -63 67 -143 84 -179
16 -36 47 -101 67 -145 21 -44 50 -107 65 -140 72 -157 104 -225 135 -290 48
-100 134 -284 185 -398 l45 -97 1303 0 1303 0 46 97 c25 53 67 144 94 201 27
57 49 106 49 107 0 2 27 59 59 127 32 68 85 179 116 248 32 69 78 168 102 220
25 52 57 120 70 150 14 30 46 98 70 150 25 52 69 147 98 210 29 63 74 160 100
215 26 55 105 224 175 375 70 151 148 318 173 370 25 52 72 154 105 225 78
169 123 266 183 393 27 57 49 105 49 107 0 2 26 59 59 126 32 68 70 149 83
179 42 92 121 261 222 474 31 65 56 120 56 121 0 2 23 52 51 112 70 149 112
237 144 308 40 88 87 188 134 288 69 147 122 260 143 307 11 25 41 88 65 140
25 52 61 129 80 170 19 41 45 98 58 125 29 61 107 229 145 310 46 101 86 186
130 280 23 50 56 119 72 155 16 36 45 97 63 135 85 180 135 288 135 290 0 2
29 65 65 140 36 75 75 157 86 183 12 26 36 79 54 117 91 196 244 523 291 624
30 62 54 115 54 117 0 2 22 50 49 106 89 186 151 320 151 323 0 1 24 54 54
116 29 63 100 213 156 334 56 121 124 267 151 324 27 57 49 105 49 106 0 2 25
56 56 121 59 125 94 200 139 299 16 33 59 125 97 204 37 79 68 145 68 147 0 2
22 50 49 106 26 57 58 123 69 148 11 25 41 90 67 145 26 55 61 129 77 165 17
36 46 99 66 140 19 41 47 102 62 135 15 33 51 110 80 170 57 121 93 197 95
205 0 3 16 37 34 75 19 39 48 102 66 140 18 39 49 105 69 148 89 191 109 234
199 427 52 113 122 263 156 334 33 70 61 129 61 131 0 2 24 54 54 117 29 62
64 136 76 163 13 28 49 105 81 173 33 67 59 125 59 127 0 2 32 70 70 151 39
80 70 147 70 149 0 1 26 58 59 126 32 68 67 144 79 169 11 25 55 119 97 210
75 161 94 200 189 403 25 55 46 100 46 102 0 2 29 63 64 137 35 73 75 158 88
188 14 30 40 87 58 125 18 39 45 97 60 130 16 33 49 105 75 160 53 111 94 200
135 290 15 33 45 98 68 145 63 135 105 225 177 380 37 80 82 177 100 215 18
39 79 169 135 290 57 121 121 258 143 305 21 47 52 112 67 145 15 33 47 101
70 150 23 50 82 176 130 280 48 105 111 240 140 300 28 61 62 133 75 160 13
28 40 86 60 130 21 44 50 107 65 140 15 33 47 101 70 150 23 50 71 153 107
230 36 77 80 172 98 210 81 172 135 287 135 290 0 1 26 58 59 126 32 68 70
149 84 179 13 30 44 96 68 145 23 50 43 92 44 95 1 3 13 30 27 60 14 30 40 87
58 125 18 39 53 113 77 165 25 52 82 176 128 275 46 99 98 208 114 243 17 34
31 64 31 66 0 2 27 61 60 130 33 70 60 128 60 130 0 2 29 64 64 137 35 74 75
159 89 189 35 78 502 1081 542 1165 18 39 52 110 75 160 52 113 79 170 126
270 21 44 38 82 38 85 1 3 4 10 8 15 3 6 50 105 103 220 53 116 114 246 135
290 21 44 48 103 60 130 13 28 49 106 81 174 33 67 59 124 59 126 0 1 26 58
59 126 32 68 68 147 81 174 12 28 42 91 65 140 23 50 68 146 100 215 32 69 77
166 100 215 44 93 69 147 175 375 62 134 89 192 170 365 24 50 55 117 70 150
71 155 139 301 216 463 30 62 54 114 54 116 0 2 29 65 65 140 36 75 65 138 65
140 0 2 24 55 54 117 74 156 559 1195 633 1359 14 30 47 100 73 155 26 55 59
125 73 155 14 30 43 93 65 140 95 204 116 248 142 305 15 33 76 164 135 290
141 302 168 360 195 420 12 28 44 95 70 150 27 55 62 130 79 168 61 133 94
204 152 325 33 68 59 125 59 127 0 2 20 47 45 99 25 53 109 232 186 399 78
166 155 331 172 367 17 36 31 67 32 70 0 3 16 37 34 75 18 39 62 131 96 205
34 74 81 173 103 220 22 47 86 184 142 305 57 121 114 245 128 275 14 30 26
57 27 60 2 5 21 46 119 255 26 55 58 123 71 150 12 28 36 79 53 115 17 36 60
127 96 204 36 76 66 140 66 142 0 2 27 60 60 130 33 69 60 128 60 129 0 1 24
54 54 117 30 63 71 150 92 194 21 43 38 81 39 84 3 10 44 99 99 213 31 65 56
120 56 122 0 3 16 37 36 77 19 40 42 88 49 106 l14 32 -3768 0 -3768 0 -38
-82z"/>
</g>
</svg>
